<svg viewBox="0 0 800 800" xmlns="http://www.w3.org/2000/svg"><path d="M76.70466442976743,286.65653393391756 L332.6006001748357,499.9911631952911 M332.46312753412093,465.0554468390452 L332.6006001748357,499.9911631952911 M76.02746733161388,252.19415195388234 L332.46312753412093,465.0554468390452 M76.70466442976743,286.65653393391756 L76.02746733161388,252.19415195388234 M458.0844766506584,427.54301333301714 L201.13644508905023,217.97515529206163 M458.0844766506584,427.54301333301714 L332.6006001748357,499.9911631952911 M76.70466442976743,286.65653393391756 L201.13644508905023,217.97515529206163 M458.2194872339099,392.7652855741365 L332.46312753412093,465.0554468390452 M458.0844766506584,427.54301333301714 L458.2194872339099,392.7652855741365 M458.2194872339099,392.7652855741365 L200.72708759050136,183.6703874748422 M200.72708759050136,183.6703874748422 L76.02746733161388,252.19415195388234 M200.72708759050136,183.6703874748422 L201.13644508905023,217.97515529206163" stroke="black"  stroke-width="4"  fill="red"/>
<path d="M76.02746733161388,252.19415195388234 L597.8828648671192,685.3742039333445 M598.337161315129,649.8154760622017 L597.8828648671192,685.3742039333445 M598.337161315129,649.8154760622017 L75.3473881923079,217.58510365860653 M76.02746733161388,252.19415195388234 L75.3473881923079,217.58510365860653 M200.72708759050136,183.6703874748422 L724.6035136777108,609.0805637697192 M200.72708759050136,183.6703874748422 L76.02746733161388,252.19415195388234 M597.8828648671192,685.3742039333445 L724.6035136777108,609.0805637697192 M421.84401465073455,457.3173103314356 L422.978920067009,458.04489401963906 M422.978920067009,458.04489401963906 L424.38233579731804,458.59506604674607 M424.38233579731804,458.59506604674607 L425.9726423208604,458.9357715337589 M425.9726423208604,458.9357715337589 L427.6573126666633,459.04715924723246 M427.6573126666633,459.04715924723246 L429.3382964126333,458.9227354297983 M429.3382964126333,458.9227354297983 L430.9177584238533,458.56975234519757 M430.9177584238533,458.56975234519757 L432.3037970018985,458.0087776325461 M432.3037970018985,458.0087776325461 L433.4158151241827,457.27249531995056 M433.4158151241827,457.27249531995056 L434.18920703205504,456.4037791908926 M434.18920703205504,456.4037791908926 L434.57910658468387,455.45318184211766 M434.57910658468387,455.45318184211766 L434.562984228158,454.47598644200366 M434.562984228158,454.47598644200366 L434.14192532067,453.5289843418535 M434.14192532067,453.5289843418535 L433.34052882689053,452.66717244297814 M433.34052882689053,452.66717244297814 L432.20544478764634,451.940564130476 M432.20544478764634,451.940564130476 L430.80265711400824,451.39130452938826 M430.80265711400824,451.39130452938826 L429.21363866079287,451.0512376742646 M429.21363866079287,451.0512376742646 L427.5306257384179,450.94007200996964 M427.5306257384179,450.94007200996964 L425.8512901376808,451.06424980702485 M425.8512901376808,451.06424980702485 L424.27308258980366,451.41657305072664 M424.27308258980366,451.41657305072664 L422.88761945413796,451.9766240760629 M422.88761945413796,451.9766240760629 L421.77536942406533,452.7119345074332 M421.77536942406533,452.7119345074332 L421.0009931496749,453.5798521896841 M421.0009931496749,453.5798521896841 L420.609574601258,454.5300058104809 M420.609574601258,454.5300058104809 L420.6239937341145,455.5072124575446 M420.6239937341145,455.5072124575446 L421.0435590573995,456.4546821408025 M421.0435590573995,456.4546821408025 L421.84401465073455,457.3173103314356 M618.093965613915,618.5725150431444 L619.2698558918469,619.3296544644868 M619.2698558918469,619.3296544644868 L620.715220048943,619.9021698192521 M620.715220048943,619.9021698192521 L622.3460357942683,620.2567255931685 M622.3460357942683,620.2567255931685 L624.067361508537,620.3726349339559 M624.067361508537,620.3726349339559 L625.7790282555361,620.2431505515387 M625.7790282555361,620.2431505515387 L627.3814306439126,619.8758228952986 M627.3814306439126,619.8758228952986 L628.7813223318421,619.2920612255643 M628.7813223318421,619.2920612255643 L629.8973090884058,618.5258742351045 M629.8973090884058,618.5258742351045 L630.664547475502,617.6218815817479 M630.664547475502,617.6218815817479 L631.0385208930267,616.6326768891863 M631.0385208930267,616.6326768891863 L630.9976541186383,615.6158080367807 M630.9976541186383,615.6158080367807 L630.5444697304721,614.6303584442235 M630.5444697304721,614.6303584442235 L629.7054137659379,613.7335535825466 M629.7054137659379,613.7335535825466 L628.529362653051,612.9774494345068 M628.529362653051,612.9774494345068 L627.0846753009993,612.4059026302036 M627.0846753009993,612.4059026302036 L625.4552465018321,612.052039266991 M625.4552465018321,612.052039266991 L623.7356267921068,611.9363513074884 M623.7356267921068,611.9363513074884 L622.025662348033,612.0655747129099 M622.025662348033,612.0655747129099 L620.4245522703983,612.4321996960305 M620.4245522703983,612.4321996960305 L619.025235636118,613.0149846699542 M619.025235636118,613.0149846699542 L617.9089861536123,613.7801379888408 M617.9089861536123,613.7801379888408 L617.1407021836025,614.6832799422668 M617.1407021836025,614.6832799422668 L616.765137536189,615.6720131514846 M616.765137536189,615.6720131514846 L616.8042320014466,616.6888977594485 M616.8042320014466,616.6888977594485 L617.2558742585302,617.6748435855911 M617.2558742585302,617.6748435855911 L618.093965613915,618.5725150431444 M598.337161315129,649.8154760622017 L725.3355914256344,573.6816994760231 M724.6035136777108,609.0805637697192 L725.3355914256344,573.6816994760231 M725.3355914256344,573.6816994760231 L200.31600324059187,149.22090694271944 M200.31600324059187,149.22090694271944 L75.3473881923079,217.58510365860653 M421.9012726620018,422.2458513176905 L421.0990629756638,421.3851198849374 M421.0990629756638,421.3851198849374 L420.67857500176734,420.4397339760893 M420.67857500176734,420.4397339760893 L420.6641177236088,419.46467701509476 M420.6641177236088,419.46467701509476 L421.05638421094267,418.51661406593973 M421.05638421094267,418.51661406593973 L421.8324446569608,417.65060653611374 M421.8324446569608,417.65060653611374 L422.9471168538954,416.91691472944353 M422.9471168538954,416.91691472944353 L424.3355992953802,416.35809673076056 M424.3355992953802,416.35809673076056 L425.9172480323671,416.00654926077306 M425.9172480323671,416.00654926077306 L427.6002471756913,415.8826449044766 M427.6002471756913,415.8826449044766 L429.2869337083414,415.9935657804671 M429.2869337083414,415.9935657804671 L430.8794229553119,416.33288384544375 M430.8794229553119,416.33288384544375 L432.2852773816576,416.8809341694783 M432.2852773816576,416.8809341694783 L433.42284613599753,417.6059429971313 M433.42284613599753,417.6059429971313 L434.22600083548735,418.46585815907326 M434.22600083548735,418.46585815907326 L434.6479889179748,419.4107764950461 M434.6479889179748,419.4107764950461 L434.6641568592895,420.3858222051444 M434.6641568592895,420.3858222051444 L434.27341600996806,421.33432887371816 M434.27341600996806,421.33432887371816 L433.49834424850815,422.201134836067 M433.49834424850815,422.201134836067 L432.38390498078655,422.93579850364347 M432.38390498078655,422.93579850364347 L430.9948445838884,423.49554016570124 M430.9948445838884,423.49554016570124 L429.4119359040952,423.8477474634077 M429.4119359040952,423.8477474634077 L427.7272814204824,423.97189783807875 M427.7272814204824,423.97189783807875 L426.03893021698957,423.8607549178906 M426.03893021698957,423.8607549178906 L424.44514725789867,423.52079823049473 M424.44514725789867,423.52079823049473 L423.0386620214913,422.9718354999531 M423.0386620214913,422.9718354999531 L421.9012726620018,422.2458513176905 M618.5896028738688,583.1535892720781 L617.7495900363701,582.2578129692818 M617.7495900363701,582.2578129692818 L617.2968821601976,581.2739491664927 M617.2968821601976,581.2739491664927 L617.2576392441854,580.2592124687906 M617.2576392441854,580.2592124687906 L617.6339805405672,579.2725682460211 M617.6339805405672,579.2725682460211 L618.4039205662109,578.3713349069233 M618.4039205662109,578.3713349069233 L619.5226088305836,577.6077989371779 M619.5226088305836,577.6077989371779 L620.9250051262796,577.0262460432664 M620.9250051262796,577.0262460432664 L622.5296569819984,576.6603962456036 M622.5296569819984,576.6603962456036 L624.2434199758286,576.531446085304 M624.2434199758286,576.531446085304 L625.9668749698554,576.6468894201932 M625.9668749698554,576.6468894201932 L627.5999534285742,577.0000045770641 M627.5999534285742,577.0000045770641 L629.0478932991358,577.5703430503313 M629.0478932991358,577.5703430503313 L630.2266110450419,578.3248489597058 M630.2266110450419,578.3248489597058 L631.0675927325643,579.219758575013 M631.0675927325643,579.219758575013 L631.5218495858784,580.2031260894944 M631.5218495858784,580.2031260894944 L631.5628727069117,581.2178470338522 M631.5628727069117,581.2178470338522 L631.1881297658547,582.2049627919582 M631.1881297658547,582.2049627919582 L630.4192400455929,583.1070469208469 M630.4192400455929,583.1070469208469 L629.300815749951,583.8716166722029 M629.300815749951,583.8716166722029 L627.8978418905381,584.4541463735825 M627.8978418905381,584.4541463735825 L626.291892011602,584.8206989179021 M626.291892011602,584.8206989179021 L624.5764191331855,584.9499100879284 M624.5764191331855,584.9499100879284 L622.8512504581114,584.8342453157304 M622.8512504581114,584.8342453157304 L621.2167788864809,584.4804376994582 M621.2167788864809,584.4804376994582 L619.7681591322265,583.9091305689208 M619.7681591322265,583.9091305689208 L618.5896028738688,583.1535892720781 M200.31600324059187,149.22090694271944 L200.72708759050136,183.6703874748422 M421.84401465073455,457.3173103314356 L421.9012726620018,422.2458513176905 M618.093965613915,618.5725150431444 L618.5896028738688,583.1535892720781" stroke="black"  stroke-width="4"  fill="red"/>
<path d="M75.3473881923079,217.58510365860653 L332.3250538616986,429.966991194824 M332.18637520735894,394.7247924017281 L332.3250538616986,429.966991194824 M74.66440857436555,182.82845076938966 L332.18637520735894,394.7247924017281 M75.3473881923079,217.58510365860653 L74.66440857436555,182.82845076938966 M458.3550827579234,357.8368814009251 L200.31600324059187,149.22090694271944 M458.3550827579234,357.8368814009251 L332.3250538616986,429.966991194824 M200.31600324059187,149.22090694271944 L75.3473881923079,217.58510365860653 M458.49126703238386,322.7568194667615 L332.18637520735894,394.7247924017281 M458.3550827579234,357.8368814009251 L458.49126703238386,322.7568194667615 M458.49126703238386,322.7568194667615 L199.90318108928906,114.62579606665554 M74.66440857436555,182.82845076938966 L199.90318108928906,114.62579606665554 M199.90318108928906,114.62579606665554 L200.31600324059187,149.22090694271944" stroke="black"  stroke-width="4"  fill="red"/>
<path d="" stroke="black"  stroke-width="4"  fill="red"/>
<path d="" stroke="black"  stroke-width="4"  fill="red"/>
<path d="M433.2585692914979,487.57601612175677 L433.5055235665999,382.39132779908107 M421.7870056426263,492.2362508784438 L421.9587813113876,387.0208723980906 M433.2585692914979,487.57601612175677 L434.058215260417,488.4397001642967 M434.058215260417,488.4397001642967 L434.47834907534434,489.3887590043002 M434.47834907534434,489.3887590043002 L434.4944260902176,490.3680762084808 M434.4944260902176,490.3680762084808 L434.1053642198167,491.3207371105222 M434.1053642198167,491.3207371105222 L433.33364489981966,492.1913386159714 M433.33364489981966,492.1913386159714 L432.2240374258872,492.9292185624928 M432.2240374258872,492.9292185624928 L430.8410075477009,493.4914103173493 M430.8410075477009,493.4914103173493 L429.264977227939,493.8451591158576 M429.264977227939,493.8451591158576 L427.58764825786056,493.96985282540453 M427.58764825786056,493.96985282540453 L425.9066427550246,493.85822349728795 M425.9066427550246,493.85822349728795 L424.319797534114,493.5167789332823 M424.319797534114,493.5167789332823 L422.9194379413554,492.96541330972497 M422.9194379413554,492.96541330972497 L421.7870056426263,492.2362508784438 M433.5055235665999,382.39132779908107 L434.3104442033124,383.24932136143053 M434.3104442033124,383.24932136143053 L434.7333655703185,384.1921286128421 M434.7333655703185,384.1921286128421 L434.749579341451,385.16499644143215 M434.749579341451,385.16499644143215 L434.3579935575315,386.1113850056 M434.3579935575315,386.1113850056 L433.5812346293266,386.97625573922005 M433.5812346293266,386.97625573922005 L432.46436365036914,387.709279520375 M432.46436365036914,387.709279520375 L431.0722682296318,388.26777194796045 M431.0722682296318,388.26777194796045 L429.48589780588776,388.6191932753546 M429.48589780588776,388.6191932753546 L427.79755651808586,388.7430666176845 M427.79755651808586,388.7430666176845 L426.1055083369778,388.63217170427333 M426.1055083369778,388.63217170427333 L424.50823370996216,388.29297364570925 M424.50823370996216,388.29297364570925 L423.0986655109986,387.7452360839598 M423.0986655109986,387.7452360839598 L421.9587813113876,387.0208723980906 M421.7870056426263,492.2362508784438 L420.98829648820407,491.37175054651925 M420.98829648820407,491.37175054651925 L420.5696497755657,490.4222241265331 M420.5696497755657,490.4222241265331 L420.5552685933243,489.4428956796707 M420.5552685933243,489.4428956796707 L420.94584286057955,488.49067850149044 M420.94584286057955,488.49067850149044 L421.71854225724593,487.62087543432284 M421.71854225724593,487.62087543432284 L422.8283806242493,486.88396736158137 M422.8283806242493,486.88396736158137 L424.21083755675943,486.3226992915928 M424.21083755675943,486.3226992915928 L425.7856188569812,485.96961032831337 M425.7856188569812,485.96961032831337 L427.46130683004225,485.8451626341215 M427.46130683004225,485.8451626341215 L429.1406621096405,485.9565699144219 M429.1406621096405,485.9565699144219 L430.72622486521703,486.2973758553128 M430.72622486521703,486.2973758553128 L432.1259591367076,486.8478290594043 M432.1259591367076,486.8478290594043 L433.2585692914979,487.57601612175677 M421.9587813113876,387.0208723980906 L421.1548098275282,386.16206260960536 M421.1548098275282,386.16206260960536 L420.733395136347,385.2187878091432 M420.733395136347,385.2187878091432 L420.7188995167312,384.2459087260377 M420.7188995167312,384.2459087260377 L421.11201762455744,383.29996385983037 M421.11201762455744,383.29996385983037 L421.8897695837994,382.43589152123843 M421.8897695837994,382.43589152123843 L423.00687452016075,381.70383955241874 M423.00687452016075,381.70383955241874 L424.3983894559777,381.1462707374174 M424.3983894559777,381.1462707374174 L425.9834944214795,380.7955092053811 M425.9834944214795,380.7955092053811 L427.67017312668656,380.6718818722694 M427.67017312668656,380.6718818722694 L429.3605493418983,380.78255475291866 M429.3605493418983,380.78255475291866 L430.9565245778773,381.12111421709835 M430.9565245778773,381.12111421709835 L432.36545919524247,381.6679394183766 M432.36545919524247,381.6679394183766 L433.5055235665999,382.39132779908107" stroke="black"  stroke-width="4"  fill="red"/>
<path d="M629.1865271721019,648.9852766258443 L630.7501344786356,542.7581118210815 M617.6005270185235,653.8343211962451 L619.0874535264178,547.5764913974066 M629.1865271721019,648.9852766258443 L630.0236662049904,649.8839511509882 M630.0236662049904,649.8839511509882 L630.4757831626829,650.8714547100988 M630.4757831626829,650.8714547100988 L630.5164945721995,651.8904424628827 M630.5164945721995,651.8904424628827 L630.143287545585,652.8817078715256 M630.143287545585,652.8817078715256 L629.3776934223898,653.7875832618786 M629.3776934223898,653.7875832618786 L628.2641336072926,654.5553656351294 M628.2641336072926,654.5553656351294 L626.8673105801162,655.1403426208396 M626.8673105801162,655.1403426208396 L625.2684400449233,655.5084349106398 M625.2684400449233,655.5084349106398 L623.5605625774274,655.6381888117905 M623.5605625774274,655.6381888117905 L621.8430627410295,655.5220382088307 M621.8430627410295,655.5220382088307 L620.2158865050947,655.1667443912997 M620.2158865050947,655.1667443912997 L618.7737633465276,654.5930371438703 M618.7737633465276,654.5930371438703 L617.6005270185235,653.8343211962451 M630.7501344786356,542.7581118210815 L631.593050741055,543.6511003200475 M631.593050741055,543.6511003200475 L632.0483851297839,544.6323573294445 M632.0483851297839,544.6323573294445 L632.089565587754,545.6449010324925 M632.089565587754,545.6449010324925 L631.7140499714526,546.6298993209878 M631.7140499714526,546.6298993209878 L630.9435018031334,547.5300488484049 M630.9435018031334,547.5300488484049 L629.822629301264,548.29297925892 M629.822629301264,548.29297925892 L628.4165596702268,548.8742601525576 M628.4165596702268,548.8742601525576 L626.8070465592765,549.2400269889147 M626.8070465592765,549.2400269889147 L625.0877505848607,549.3689612114083 M625.0877505848607,549.3689612114083 L623.3587217513755,549.253544351352 M623.3587217513755,549.253544351352 L621.7205779265531,548.9004951203442 M621.7205779265531,548.9004951203442 L620.2686878776641,548.3304127290052 M620.2686878776641,548.3304127290052 L619.0874535264178,547.5764913974066 M617.6005270185235,653.8343211962451 L616.7643483817179,652.9347801910806 M616.7643483817179,652.9347801910806 L616.313766754335,651.9467804669882 M616.313766754335,651.9467804669882 L616.2748198105039,650.9277769568741 M616.2748198105039,650.9277769568741 L616.6496109891121,649.9369829663931 M616.6496109891121,649.9369829663931 L617.4162460044967,649.0319581623125 M617.4162460044967,649.0319581623125 L618.5300673114457,648.26520932168 M618.5300673114457,648.26520932168 L619.9263177787499,647.6812088928011 M619.9263177787499,647.6812088928011 L621.5239016780228,647.3138191829257 M621.5239016780228,647.3138191829257 L623.2300843739699,647.1843262187397 M623.2300843739699,647.1843262187397 L624.9458858311043,647.3002555026239 M624.9458858311043,647.3002555026239 L626.5716812465117,647.6548569775252 M626.5716812465117,647.6548569775252 L628.0131306578261,648.2275958083949 M628.0131306578261,648.2275958083949 L629.1865271721019,648.9852766258443 M619.0874535264178,547.5764913974066 L618.2455103829501,546.6826361440224 M618.2455103829501,546.6826361440224 L617.7917318631102,545.70088280573 M617.7917318631102,545.70088280573 L617.7523395589653,544.688323352001 M617.7523395589653,544.688323352001 L618.1294607039949,543.7037966374057 M618.1294607039949,543.7037966374057 L618.9010639321957,542.8044979654078 M618.9010639321957,542.8044979654078 L620.0222016543644,542.0426014170982 M620.0222016543644,542.0426014170982 L621.4276911951848,541.4622974147678 M621.4276911951848,541.4622974147678 L623.0359005324541,541.0972333785899 M623.0359005324541,541.0972333785899 L624.7534789898893,540.968560191121 M624.7534789898893,540.968560191121 L626.4807864141399,541.0837555641451 M626.4807864141399,541.0837555641451 L628.1175309178049,541.436112306781 M628.1175309178049,541.436112306781 L629.5687379833073,542.0052259616286 M629.5687379833073,542.0052259616286 L630.7501344786356,542.7581118210815" stroke="black"  stroke-width="4"  fill="red"/></svg>