<svg viewBox="0 0 800 800" xmlns="http://www.w3.org/2000/svg"><path d="M76.70466442976743,286.65653393391756 L332.6006001748357,499.9911631952911 M332.46312753412093,465.0554468390452 L332.6006001748357,499.9911631952911 M76.02746733161388,252.19415195388234 L332.46312753412093,465.0554468390452 M76.70466442976743,286.65653393391756 L76.02746733161388,252.19415195388234 M458.0844766506584,427.54301333301714 L201.13644508905023,217.97515529206163 M458.0844766506584,427.54301333301714 L332.6006001748357,499.9911631952911 M76.70466442976743,286.65653393391756 L201.13644508905023,217.97515529206163 M458.2194872339099,392.7652855741365 L332.46312753412093,465.0554468390452 M458.0844766506584,427.54301333301714 L458.2194872339099,392.7652855741365 M458.2194872339099,392.7652855741365 L200.72708759050136,183.6703874748422 M200.72708759050136,183.6703874748422 L76.02746733161388,252.19415195388234 M200.72708759050136,183.6703874748422 L201.13644508905023,217.97515529206163" stroke="black"  stroke-width="4"  fill="red"/>
<path d="M76.02746733161388,252.19415195388234 L597.8828648671192,685.3742039333445 M598.337161315129,649.8154760622017 L597.8828648671192,685.3742039333445 M598.337161315129,649.8154760622017 L75.3473881923079,217.58510365860653 M76.02746733161388,252.19415195388234 L75.3473881923079,217.58510365860653 M200.72708759050136,183.6703874748422 L724.6035136777108,609.0805637697192 M597.8828648671192,685.3742039333445 L724.6035136777108,609.0805637697192 M200.72708759050136,183.6703874748422 L76.02746733161388,252.19415195388234 M421.84401465073455,457.3173103314356 L422.978920067009,458.04489401963906 M422.978920067009,458.04489401963906 L424.38233579731804,458.59506604674607 M424.38233579731804,458.59506604674607 L425.9726423208604,458.9357715337589 M425.9726423208604,458.9357715337589 L427.6573126666633,459.04715924723246 M427.6573126666633,459.04715924723246 L429.3382964126333,458.9227354297983 M429.3382964126333,458.9227354297983 L430.9177584238533,458.56975234519757 M430.9177584238533,458.56975234519757 L432.3037970018985,458.0087776325461 M432.3037970018985,458.0087776325461 L433.4158151241827,457.27249531995056 M433.4158151241827,457.27249531995056 L434.18920703205504,456.4037791908926 M434.18920703205504,456.4037791908926 L434.57910658468387,455.45318184211766 M434.57910658468387,455.45318184211766 L434.562984228158,454.47598644200366 M434.562984228158,454.47598644200366 L434.14192532067,453.5289843418535 M434.14192532067,453.5289843418535 L433.34052882689053,452.66717244297814 M433.34052882689053,452.66717244297814 L432.20544478764634,451.940564130476 M432.20544478764634,451.940564130476 L430.80265711400824,451.39130452938826 M430.80265711400824,451.39130452938826 L429.21363866079287,451.0512376742646 M429.21363866079287,451.0512376742646 L427.5306257384179,450.94007200996964 M427.5306257384179,450.94007200996964 L425.8512901376808,451.06424980702485 M425.8512901376808,451.06424980702485 L424.27308258980366,451.41657305072664 M424.27308258980366,451.41657305072664 L422.88761945413796,451.9766240760629 M422.88761945413796,451.9766240760629 L421.77536942406533,452.7119345074332 M421.77536942406533,452.7119345074332 L421.0009931496749,453.5798521896841 M421.0009931496749,453.5798521896841 L420.609574601258,454.5300058104809 M420.609574601258,454.5300058104809 L420.6239937341145,455.5072124575446 M420.6239937341145,455.5072124575446 L421.0435590573995,456.4546821408025 M421.0435590573995,456.4546821408025 L421.84401465073455,457.3173103314356 M618.093965613915,618.5725150431444 L619.2698558918469,619.3296544644868 M619.2698558918469,619.3296544644868 L620.715220048943,619.9021698192521 M620.715220048943,619.9021698192521 L622.3460357942683,620.2567255931685 M622.3460357942683,620.2567255931685 L624.067361508537,620.3726349339559 M624.067361508537,620.3726349339559 L625.7790282555361,620.2431505515387 M625.7790282555361,620.2431505515387 L627.3814306439126,619.8758228952986 M627.3814306439126,619.8758228952986 L628.7813223318421,619.2920612255643 M628.7813223318421,619.2920612255643 L629.8973090884058,618.5258742351045 M629.8973090884058,618.5258742351045 L630.664547475502,617.6218815817479 M630.664547475502,617.6218815817479 L631.0385208930267,616.6326768891863 M631.0385208930267,616.6326768891863 L630.9976541186383,615.6158080367807 M630.9976541186383,615.6158080367807 L630.5444697304721,614.6303584442235 M630.5444697304721,614.6303584442235 L629.7054137659379,613.7335535825466 M629.7054137659379,613.7335535825466 L628.529362653051,612.9774494345068 M628.529362653051,612.9774494345068 L627.0846753009993,612.4059026302036 M627.0846753009993,612.4059026302036 L625.4552465018321,612.052039266991 M625.4552465018321,612.052039266991 L623.7356267921068,611.9363513074884 M623.7356267921068,611.9363513074884 L622.025662348033,612.0655747129099 M622.025662348033,612.0655747129099 L620.4245522703983,612.4321996960305 M620.4245522703983,612.4321996960305 L619.025235636118,613.0149846699542 M619.025235636118,613.0149846699542 L617.9089861536123,613.7801379888408 M617.9089861536123,613.7801379888408 L617.1407021836025,614.6832799422668 M617.1407021836025,614.6832799422668 L616.765137536189,615.6720131514846 M616.765137536189,615.6720131514846 L616.8042320014466,616.6888977594485 M616.8042320014466,616.6888977594485 L617.2558742585302,617.6748435855911 M617.2558742585302,617.6748435855911 L618.093965613915,618.5725150431444 M598.337161315129,649.8154760622017 L725.3355914256344,573.6816994760231 M724.6035136777108,609.0805637697192 L725.3355914256344,573.6816994760231 M200.31600324059187,149.22090694271944 L75.3473881923079,217.58510365860653 M725.3355914256344,573.6816994760231 L200.31600324059187,149.22090694271944 M421.9012726620018,422.2458513176905 L421.0990629756638,421.3851198849374 M421.0990629756638,421.3851198849374 L420.67857500176734,420.4397339760893 M420.67857500176734,420.4397339760893 L420.6641177236088,419.46467701509476 M420.6641177236088,419.46467701509476 L421.05638421094267,418.51661406593973 M421.05638421094267,418.51661406593973 L421.8324446569608,417.65060653611374 M421.8324446569608,417.65060653611374 L422.9471168538954,416.91691472944353 M422.9471168538954,416.91691472944353 L424.3355992953802,416.35809673076056 M424.3355992953802,416.35809673076056 L425.9172480323671,416.00654926077306 M425.9172480323671,416.00654926077306 L427.6002471756913,415.8826449044766 M427.6002471756913,415.8826449044766 L429.2869337083414,415.9935657804671 M429.2869337083414,415.9935657804671 L430.8794229553119,416.33288384544375 M430.8794229553119,416.33288384544375 L432.2852773816576,416.8809341694783 M432.2852773816576,416.8809341694783 L433.42284613599753,417.6059429971313 M433.42284613599753,417.6059429971313 L434.22600083548735,418.46585815907326 M434.22600083548735,418.46585815907326 L434.6479889179748,419.4107764950461 M434.6479889179748,419.4107764950461 L434.6641568592895,420.3858222051444 M434.6641568592895,420.3858222051444 L434.27341600996806,421.33432887371816 M434.27341600996806,421.33432887371816 L433.49834424850815,422.201134836067 M433.49834424850815,422.201134836067 L432.38390498078655,422.93579850364347 M432.38390498078655,422.93579850364347 L430.9948445838884,423.49554016570124 M430.9948445838884,423.49554016570124 L429.4119359040952,423.8477474634077 M429.4119359040952,423.8477474634077 L427.7272814204824,423.97189783807875 M427.7272814204824,423.97189783807875 L426.03893021698957,423.8607549178906 M426.03893021698957,423.8607549178906 L424.44514725789867,423.52079823049473 M424.44514725789867,423.52079823049473 L423.0386620214913,422.9718354999531 M423.0386620214913,422.9718354999531 L421.9012726620018,422.2458513176905 M618.5896028738688,583.1535892720781 L617.7495900363701,582.2578129692818 M617.7495900363701,582.2578129692818 L617.2968821601976,581.2739491664927 M617.2968821601976,581.2739491664927 L617.2576392441854,580.2592124687906 M617.2576392441854,580.2592124687906 L617.6339805405672,579.2725682460211 M617.6339805405672,579.2725682460211 L618.4039205662109,578.3713349069233 M618.4039205662109,578.3713349069233 L619.5226088305836,577.6077989371779 M619.5226088305836,577.6077989371779 L620.9250051262796,577.0262460432664 M620.9250051262796,577.0262460432664 L622.5296569819984,576.6603962456036 M622.5296569819984,576.6603962456036 L624.2434199758286,576.531446085304 M624.2434199758286,576.531446085304 L625.9668749698554,576.6468894201932 M625.9668749698554,576.6468894201932 L627.5999534285742,577.0000045770641 M627.5999534285742,577.0000045770641 L629.0478932991358,577.5703430503313 M629.0478932991358,577.5703430503313 L630.2266110450419,578.3248489597058 M630.2266110450419,578.3248489597058 L631.0675927325643,579.219758575013 M631.0675927325643,579.219758575013 L631.5218495858784,580.2031260894944 M631.5218495858784,580.2031260894944 L631.5628727069117,581.2178470338522 M631.5628727069117,581.2178470338522 L631.1881297658547,582.2049627919582 M631.1881297658547,582.2049627919582 L630.4192400455929,583.1070469208469 M630.4192400455929,583.1070469208469 L629.300815749951,583.8716166722029 M629.300815749951,583.8716166722029 L627.8978418905381,584.4541463735825 M627.8978418905381,584.4541463735825 L626.291892011602,584.8206989179021 M626.291892011602,584.8206989179021 L624.5764191331855,584.9499100879284 M624.5764191331855,584.9499100879284 L622.8512504581114,584.8342453157304 M622.8512504581114,584.8342453157304 L621.2167788864809,584.4804376994582 M621.2167788864809,584.4804376994582 L619.7681591322265,583.9091305689208 M619.7681591322265,583.9091305689208 L618.5896028738688,583.1535892720781 M200.31600324059187,149.22090694271944 L200.72708759050136,183.6703874748422 M421.84401465073455,457.3173103314356 L421.9012726620018,422.2458513176905 M618.093965613915,618.5725150431444 L618.5896028738688,583.1535892720781" stroke="black"  stroke-width="4"  fill="red"/>
<path d="M75.3473881923079,217.58510365860653 L332.3250538616986,429.966991194824 M332.18637520735894,394.7247924017281 L332.3250538616986,429.966991194824 M74.66440857436555,182.82845076938966 L332.18637520735894,394.7247924017281 M75.3473881923079,217.58510365860653 L74.66440857436555,182.82845076938966 M458.3550827579234,357.8368814009251 L200.31600324059187,149.22090694271944 M458.3550827579234,357.8368814009251 L332.3250538616986,429.966991194824 M200.31600324059187,149.22090694271944 L75.3473881923079,217.58510365860653 M458.49126703238386,322.7568194667615 L332.18637520735894,394.7247924017281 M458.3550827579234,357.8368814009251 L458.49126703238386,322.7568194667615 M458.49126703238386,322.7568194667615 L199.90318108928906,114.62579606665554 M74.66440857436555,182.82845076938966 L199.90318108928906,114.62579606665554 M199.90318108928906,114.62579606665554 L200.31600324059187,149.22090694271944" stroke="black"  stroke-width="4"  fill="red"/>
<path d="M433.34052882689053,452.66717244297814 L432.20544478764634,451.940564130476 M432.20544478764634,451.940564130476 L430.80265711400824,451.39130452938826 M430.80265711400824,451.39130452938826 L429.21363866079287,451.0512376742646 M429.21363866079287,451.0512376742646 L427.5306257384179,450.94007200996964 M427.5306257384179,450.94007200996964 L425.8512901376808,451.06424980702485 M425.8512901376808,451.06424980702485 L424.27308258980366,451.41657305072664 M424.27308258980366,451.41657305072664 L422.88761945413796,451.9766240760629 M422.88761945413796,451.9766240760629 L421.77536942406533,452.7119345074332 M421.77536942406533,452.7119345074332 L421.0009931496749,453.5798521896841 M421.0009931496749,453.5798521896841 L420.609574601258,454.5300058104809 M420.609574601258,454.5300058104809 L420.6239937341145,455.5072124575446 M420.6239937341145,455.5072124575446 L421.0435590573995,456.4546821408025 M421.0435590573995,456.4546821408025 L421.84401465073455,457.3173103314356 M421.84401465073455,457.3173103314356 L422.978920067009,458.04489401963906 M422.978920067009,458.04489401963906 L424.38233579731804,458.59506604674607 M424.38233579731804,458.59506604674607 L425.9726423208604,458.9357715337589 M425.9726423208604,458.9357715337589 L427.6573126666633,459.04715924723246 M427.6573126666633,459.04715924723246 L429.3382964126333,458.9227354297983 M429.3382964126333,458.9227354297983 L430.9177584238533,458.56975234519757 M430.9177584238533,458.56975234519757 L432.3037970018985,458.0087776325461 M432.3037970018985,458.0087776325461 L433.4158151241827,457.27249531995056 M433.4158151241827,457.27249531995056 L434.18920703205504,456.4037791908926 M434.18920703205504,456.4037791908926 L434.57910658468387,455.45318184211766 M434.57910658468387,455.45318184211766 L434.562984228158,454.47598644200366 M434.562984228158,454.47598644200366 L434.14192532067,453.5289843418535 M434.14192532067,453.5289843418535 L433.34052882689053,452.66717244297814 M433.34052882689053,452.66717244297814 L433.42284613599753,417.6059429971313 M433.42284613599753,417.6059429971313 L434.22600083548735,418.46585815907326 M434.22600083548735,418.46585815907326 L434.6479889179748,419.4107764950461 M434.6479889179748,419.4107764950461 L434.6641568592895,420.3858222051444 M434.6641568592895,420.3858222051444 L434.27341600996806,421.33432887371816 M434.27341600996806,421.33432887371816 L433.49834424850815,422.201134836067 M433.49834424850815,422.201134836067 L432.38390498078655,422.93579850364347 M432.38390498078655,422.93579850364347 L430.9948445838884,423.49554016570124 M430.9948445838884,423.49554016570124 L429.4119359040952,423.8477474634077 M429.4119359040952,423.8477474634077 L427.7272814204824,423.97189783807875 M427.7272814204824,423.97189783807875 L426.03893021698957,423.8607549178906 M426.03893021698957,423.8607549178906 L424.44514725789867,423.52079823049473 M424.44514725789867,423.52079823049473 L423.0386620214913,422.9718354999531 M423.0386620214913,422.9718354999531 L421.9012726620018,422.2458513176905 M421.9012726620018,422.2458513176905 L421.0990629756638,421.3851198849374 M421.0990629756638,421.3851198849374 L420.67857500176734,420.4397339760893 M420.67857500176734,420.4397339760893 L420.6641177236088,419.46467701509476 M420.6641177236088,419.46467701509476 L421.05638421094267,418.51661406593973 M421.05638421094267,418.51661406593973 L421.8324446569608,417.65060653611374 M421.8324446569608,417.65060653611374 L422.9471168538954,416.91691472944353 M422.9471168538954,416.91691472944353 L424.3355992953802,416.35809673076056 M424.3355992953802,416.35809673076056 L425.9172480323671,416.00654926077306 M425.9172480323671,416.00654926077306 L427.6002471756913,415.8826449044766 M427.6002471756913,415.8826449044766 L429.2869337083414,415.9935657804671 M429.2869337083414,415.9935657804671 L430.8794229553119,416.33288384544375 M430.8794229553119,416.33288384544375 L432.2852773816576,416.8809341694783 M432.2852773816576,416.8809341694783 L433.42284613599753,417.6059429971313" stroke="black"  stroke-width="4"  fill="red"/>
<path d="M629.7054137659379,613.7335535825466 L628.529362653051,612.9774494345068 M628.529362653051,612.9774494345068 L627.0846753009993,612.4059026302036 M627.0846753009993,612.4059026302036 L625.4552465018321,612.052039266991 M625.4552465018321,612.052039266991 L623.7356267921068,611.9363513074884 M623.7356267921068,611.9363513074884 L622.025662348033,612.0655747129099 M622.025662348033,612.0655747129099 L620.4245522703983,612.4321996960305 M620.4245522703983,612.4321996960305 L619.025235636118,613.0149846699542 M619.025235636118,613.0149846699542 L617.9089861536123,613.7801379888408 M617.9089861536123,613.7801379888408 L617.1407021836025,614.6832799422668 M617.1407021836025,614.6832799422668 L616.765137536189,615.6720131514846 M616.765137536189,615.6720131514846 L616.8042320014466,616.6888977594485 M616.8042320014466,616.6888977594485 L617.2558742585302,617.6748435855911 M617.2558742585302,617.6748435855911 L618.093965613915,618.5725150431444 M618.093965613915,618.5725150431444 L619.2698558918469,619.3296544644868 M619.2698558918469,619.3296544644868 L620.715220048943,619.9021698192521 M620.715220048943,619.9021698192521 L622.3460357942683,620.2567255931685 M622.3460357942683,620.2567255931685 L624.067361508537,620.3726349339559 M624.067361508537,620.3726349339559 L625.7790282555361,620.2431505515387 M625.7790282555361,620.2431505515387 L627.3814306439126,619.8758228952986 M627.3814306439126,619.8758228952986 L628.7813223318421,619.2920612255643 M628.7813223318421,619.2920612255643 L629.8973090884058,618.5258742351045 M629.8973090884058,618.5258742351045 L630.664547475502,617.6218815817479 M630.664547475502,617.6218815817479 L631.0385208930267,616.6326768891863 M631.0385208930267,616.6326768891863 L630.9976541186383,615.6158080367807 M630.9976541186383,615.6158080367807 L630.5444697304721,614.6303584442235 M630.5444697304721,614.6303584442235 L629.7054137659379,613.7335535825466 M629.7054137659379,613.7335535825466 L630.2266110450419,578.3248489597058 M630.2266110450419,578.3248489597058 L631.0675927325643,579.219758575013 M631.0675927325643,579.219758575013 L631.5218495858784,580.2031260894944 M631.5218495858784,580.2031260894944 L631.5628727069117,581.2178470338522 M631.5628727069117,581.2178470338522 L631.1881297658547,582.2049627919582 M631.1881297658547,582.2049627919582 L630.4192400455929,583.1070469208469 M630.4192400455929,583.1070469208469 L629.300815749951,583.8716166722029 M629.300815749951,583.8716166722029 L627.8978418905381,584.4541463735825 M627.8978418905381,584.4541463735825 L626.291892011602,584.8206989179021 M626.291892011602,584.8206989179021 L624.5764191331855,584.9499100879284 M624.5764191331855,584.9499100879284 L622.8512504581114,584.8342453157304 M622.8512504581114,584.8342453157304 L621.2167788864809,584.4804376994582 M621.2167788864809,584.4804376994582 L619.7681591322265,583.9091305689208 M619.7681591322265,583.9091305689208 L618.5896028738688,583.1535892720781 M618.5896028738688,583.1535892720781 L617.7495900363701,582.2578129692818 M617.7495900363701,582.2578129692818 L617.2968821601976,581.2739491664927 M617.2968821601976,581.2739491664927 L617.2576392441854,580.2592124687906 M617.2576392441854,580.2592124687906 L617.6339805405672,579.2725682460211 M617.6339805405672,579.2725682460211 L618.4039205662109,578.3713349069233 M618.4039205662109,578.3713349069233 L619.5226088305836,577.6077989371779 M619.5226088305836,577.6077989371779 L620.9250051262796,577.0262460432664 M620.9250051262796,577.0262460432664 L622.5296569819984,576.6603962456036 M622.5296569819984,576.6603962456036 L624.2434199758286,576.531446085304 M624.2434199758286,576.531446085304 L625.9668749698554,576.6468894201932 M625.9668749698554,576.6468894201932 L627.5999534285742,577.0000045770641 M627.5999534285742,577.0000045770641 L629.0478932991358,577.5703430503313 M629.0478932991358,577.5703430503313 L630.2266110450419,578.3248489597058" stroke="black"  stroke-width="4"  fill="red"/></svg>