<svg viewBox="0 0 800 800" xmlns="http://www.w3.org/2000/svg"><path d="M78.89618918784208,274.8940326088097 L300.7845838129412,459.87734727897714 M300.6653807335166,429.5844471795873 L300.7845838129412,459.87734727897714 M78.30898886159787,245.01156264990829 L300.6653807335166,429.5844471795873 M78.89618918784208,274.8940326088097 L78.30898886159787,245.01156264990829 M409.59215756938045,397.05726528082687 L186.7914864321745,215.34013307887665 M409.59215756938045,397.05726528082687 L300.7845838129412,459.87734727897714 M78.89618918784208,274.8940326088097 L186.7914864321745,215.34013307887665 M409.7092257888808,366.9013577293506 L300.6653807335166,429.5844471795873 M409.59215756938045,397.05726528082687 L409.7092257888808,366.9013577293506 M409.7092257888808,366.9013577293506 L186.43653089950337,185.59433099418578 M186.43653089950337,185.59433099418578 L78.30898886159787,245.01156264990829 M186.43653089950337,185.59433099418578 L186.7914864321745,215.34013307887665" stroke="black"  stroke-width="4"  fill="red"/>
<path d="M78.30898886159787,245.01156264990829 L595.4454025774957,674.2745117856031 M595.4454025774957,674.2745117856031 L595.9885534436062,643.33099196711 M595.9885534436062,643.33099196711 L77.71928950588415,215.00191773944096 M78.30898886159787,245.01156264990829 L77.71928950588415,215.00191773944096 M722.0494678715258,620.5350538761314 L186.43653089950337,185.59433099418578 M595.4454025774957,674.2745117856031 L722.0494678715258,620.5350538761314 M186.43653089950337,185.59433099418578 L78.30898886159787,245.01156264990829 M722.0494678715258,620.5350538761314 L722.8729248665155,589.7021219551731 M595.9885534436062,643.33099196711 L722.8729248665155,589.7021219551731 M186.08007800707526,155.72304793263507 L722.8729248665155,589.7021219551731 M186.08007800707526,155.72304793263507 L77.71928950588415,215.00191773944096 M186.08007800707526,155.72304793263507 L186.43653089950337,185.59433099418578" stroke="black"  stroke-width="4"  fill="red"/>
<path d="M77.71928950588415,215.00191773944096 L300.545656497082,399.15910622955886 M300.4254076783948,368.6004539770706 L300.545656497082,399.15910622955886 M77.12707513348448,184.86428429217446 L300.4254076783948,368.6004539770706 M77.71928950588415,215.00191773944096 L77.12707513348448,184.86428429217446 M409.8268012128676,336.6147980532662 L186.08007800707526,155.72304793263507 M409.8268012128676,336.6147980532662 L300.545656497082,399.15910622955886 M186.08007800707526,155.72304793263507 L77.71928950588415,215.00191773944096 M409.94488714473374,306.1967353229727 L300.4254076783948,368.6004539770706 M409.8268012128676,336.6147980532662 L409.94488714473374,306.1967353229727 M409.94488714473374,306.1967353229727 L185.72211826007285,125.72548821439693 M77.12707513348448,184.86428429217446 L185.72211826007285,125.72548821439693 M185.72211826007285,125.72548821439693 L186.08007800707526,155.72304793263507" stroke="black"  stroke-width="4"  fill="red"/></svg>