<svg viewBox="0 0 800 800" xmlns="http://www.w3.org/2000/svg"><path d="M76.70466442976743,286.65653393391756 L332.6006001748357,499.9911631952911 M332.46312753412093,465.0554468390452 L332.6006001748357,499.9911631952911 M76.02746733161388,252.19415195388234 L332.46312753412093,465.0554468390452 M76.70466442976743,286.65653393391756 L76.02746733161388,252.19415195388234 M458.0844766506584,427.54301333301714 L201.13644508905023,217.97515529206163 M458.0844766506584,427.54301333301714 L332.6006001748357,499.9911631952911 M76.70466442976743,286.65653393391756 L201.13644508905023,217.97515529206163 M458.2194872339099,392.7652855741365 L332.46312753412093,465.0554468390452 M458.0844766506584,427.54301333301714 L458.2194872339099,392.7652855741365 M458.2194872339099,392.7652855741365 L200.72708759050136,183.6703874748422 M200.72708759050136,183.6703874748422 L76.02746733161388,252.19415195388234 M200.72708759050136,183.6703874748422 L201.13644508905023,217.97515529206163" stroke="black"  stroke-width="4"  fill="red"/>
<path d="M76.02746733161388,252.19415195388234 L597.8828648671192,685.3742039333445 M598.337161315129,649.8154760622017 L597.8828648671192,685.3742039333445 M598.337161315129,649.8154760622017 L75.3473881923079,217.58510365860653 M76.02746733161388,252.19415195388234 L75.3473881923079,217.58510365860653 M597.8828648671192,685.3742039333445 L724.6035136777108,609.0805637697192 M200.72708759050136,183.6703874748422 L76.02746733161388,252.19415195388234 M724.6035136777108,609.0805637697192 L200.72708759050136,183.6703874748422 M598.337161315129,649.8154760622017 L725.3355914256344,573.6816994760231 M724.6035136777108,609.0805637697192 L725.3355914256344,573.6816994760231 M200.31600324059187,149.22090694271944 L725.3355914256344,573.6816994760231 M200.31600324059187,149.22090694271944 L75.3473881923079,217.58510365860653 M200.31600324059187,149.22090694271944 L200.72708759050136,183.6703874748422" stroke="black"  stroke-width="4"  fill="red"/>
<path d="M75.3473881923079,217.58510365860653 L332.3250538616986,429.966991194824 M332.18637520735894,394.7247924017281 L332.3250538616986,429.966991194824 M74.66440857436555,182.82845076938966 L332.18637520735894,394.7247924017281 M75.3473881923079,217.58510365860653 L74.66440857436555,182.82845076938966 M458.3550827579234,357.8368814009251 L200.31600324059187,149.22090694271944 M458.3550827579234,357.8368814009251 L332.3250538616986,429.966991194824 M200.31600324059187,149.22090694271944 L75.3473881923079,217.58510365860653 M458.49126703238386,322.7568194667615 L332.18637520735894,394.7247924017281 M458.3550827579234,357.8368814009251 L458.49126703238386,322.7568194667615 M458.49126703238386,322.7568194667615 L199.90318108928906,114.62579606665554 M74.66440857436555,182.82845076938966 L199.90318108928906,114.62579606665554 M199.90318108928906,114.62579606665554 L200.31600324059187,149.22090694271944" stroke="black"  stroke-width="4"  fill="red"/></svg>